# xmcd
#
# Track frame offsets:
#	150
#	12605
#	26120
#	39220
#	51495
#	61101
#	73616
#	85980
#	96613
#	107136
#	119044
#	129931
#	140986
#	152505
#	165160
#	178377
#	190375
#	200077
#	210866
#	220279
#	231462
#	244629
#	257630
#	269108
#	280293
#	289580
#	303877
#	313434
#	323959
#	336338
#
# Disc length: 4600 seconds
#
# Revision: 1
# Processed by: cddbd v1.5.2PL0 Copyright (c) Steve Scherf et al.
# Submitted via: audiograbber 1.83.01
#
DISCID=de11f61e
DTITLE=Webb Pierce - More and More
DYEAR=2007
DGENRE=Country
TTITLE0=Drifting Texas Sands
TTITLE1=Wondering
TTITLE2=That Heart Belongs To Me
TTITLE3=The Last Waltz
TTITLE4=I Haven't Got A Heart
TTITLE5=Back Street Affair
TTITLE6=I'll Go On Alone
TTITLE7=That's Me Without You
TTITLE8=Its Been So Long
TTITLE9=Don't Throw Your Life Away
TTITLE10=There Stands The Glass
TTITLE11=I'm Walking The Dog
TTITLE12=Slowly
TTITLE13=Even Tho'
TTITLE14=Sparkling Brown Eyes
TTITLE15=You're Not Mine Anymore
TTITLE16=I'm Gonna Fall Out Of Love With You
TTITLE17=More And More
TTITLE18=In The Jailhouse Now
TTITLE19=I Don't Care
TTITLE20=If You Were Me, And I Were You
TTITLE21=Love, Love, Love
TTITLE22=Why Baby Why
TTITLE23=Yes, I Know Why I Want To Cry
TTITLE24='Cause I Love You
TTITLE25=Little Rosa
TTITLE26=Any Old Time
TTITLE27=Teenage Boogie
TTITLE28=Oh, So Many Years
TTITLE29=I'm Tired
EXTD=30 original mono recordings.
EXTT0=
EXTT1=
EXTT2=
EXTT3=
EXTT4=
EXTT5=
EXTT6=
EXTT7=
EXTT8=
EXTT9=
EXTT10=
EXTT11=
EXTT12=
EXTT13=
EXTT14=
EXTT15=
EXTT16=
EXTT17=
EXTT18=
EXTT19=
EXTT20=
EXTT21=
EXTT22=
EXTT23=
EXTT24=
EXTT25=
EXTT26=
EXTT27=
EXTT28=
EXTT29=
PLAYORDER=
